HIERARCHY
ROOT hip
{
	OFFSET 0.000000 0.000000 0.000000 
	CHANNELS 6 Xposition Yposition Zposition Xrotation Zrotation Yrotation
	JOINT abdomen
	{
		OFFSET 0.000000 3.402643 0.000000 
		CHANNELS 3 Xrotation Zrotation Yrotation
		JOINT chest
		{
			OFFSET 0.000000 8.438565 -0.680529 
			CHANNELS 3 Xrotation Zrotation Yrotation
			JOINT neck
			{
				OFFSET 0.000000 10.207942 -0.272212 
				CHANNELS 3 Xrotation Zrotation Yrotation
				JOINT head
				{
					OFFSET 0.000000 3.130431 0.000000 
					CHANNELS 3 Xrotation Zrotation Yrotation
					End Site
					{
						OFFSET 0.000000 3.130435 0.000000 
					}
				}
			}
			JOINT lCollar
			{
				OFFSET 3.470700 6.669187 -0.816635 
				CHANNELS 3 Yrotation Zrotation Xrotation
				JOINT lShldr
				{
					OFFSET 3.198488 0.000000 0.000000 
					CHANNELS 3 Zrotation Yrotation Xrotation
					JOINT lForeArm
					{
						OFFSET 10.139888 0.000000 0.000000 
						CHANNELS 3 Yrotation Zrotation Xrotation
						JOINT lHand
						{
							OFFSET 8.370511 0.000000 0.000000 
							CHANNELS 3 Zrotation Yrotation Xrotation
							End Site
							{
								OFFSET 4.083176 0.000000 0.000000 
							}
						}
					}
				}
			}
			JOINT rCollar
			{
				OFFSET -3.470700 6.669187 -0.816635 
				CHANNELS 3 Yrotation Zrotation Xrotation
				JOINT rShldr
				{
					OFFSET -3.198488 0.000000 0.000000 
					CHANNELS 3 Zrotation Yrotation Xrotation
					JOINT rForeArm
					{
						OFFSET -10.139888 0.000000 0.000000 
						CHANNELS 3 Yrotation Zrotation Xrotation
						JOINT rHand
						{
							OFFSET -8.370511 0.000000 0.000000 
							CHANNELS 3 Zrotation Yrotation Xrotation
							End Site
							{
								OFFSET -4.083176 0.000000 0.000000 
							}
						}
					}
				}
			}
		}
	}
	JOINT lThigh
	{
		OFFSET 5.308129 -1.633274 1.361059 
		CHANNELS 3 Xrotation Zrotation Yrotation
		JOINT lShin
		{
			OFFSET -2.041588 -20.007561 0.000000 
			CHANNELS 3 Xrotation Zrotation Yrotation
			JOINT lFoot
			{
				OFFSET 0.000000 -19.190928 -1.224953 
				CHANNELS 3 Xrotation Yrotation Zrotation
				End Site
				{
					OFFSET 0.000000 -2.449906 4.627600 
				}
			}
		}
	}
	JOINT rThigh
	{
		OFFSET -5.308129 -1.633274 1.361059 
		CHANNELS 3 Xrotation Zrotation Yrotation
		JOINT rShin
		{
			OFFSET 2.041588 -20.007561 0.000000 
			CHANNELS 3 Xrotation Zrotation Yrotation
			JOINT rFoot
			{
				OFFSET 0.000000 -19.190928 -1.224953 
				CHANNELS 3 Xrotation Yrotation Zrotation
				End Site
				{
					OFFSET 0.000000 -2.449906 4.627600 
				}
			}
		}
	}
}
MOTION
Frames: 8
Frame Time: 0.033333
1.108006 52.554333 0.584812 1.757813 -4.755859 56.766769 25.084661 -7.642954 -8.086122 -16.611330 12.470703 5.917969 51.553619 8.070152 2.616707 -64.628906 -8.095703 -1.767578 2.000000 -2.000000 0.000000 -76.132813 -4.453125 18.232422 -50.083576 -2.118184 -1.818806 -10.891506 46.431549 -1.794028 -2.000000 2.000000 0.000000 83.261719 -9.550781 8.240568 49.534206 1.789630 -1.720984 -9.212624 -61.785118 8.748166 2.650805 -0.077390 1.767362 5.648581 -6.335760 -0.870784 -5.118038 11.265012 0.590825 -12.831760 -13.729403 -25.954802 28.545780 4.725008 2.699692 5.417305 -8.698135 -6.856440 
2.164541 52.335869 1.151090 2.275391 -5.097656 57.587017 24.703646 -7.722349 -7.929677 -16.611330 12.646484 5.781251 51.553619 8.070152 2.616707 -64.628906 -8.095703 -2.470704 2.000000 -2.000000 0.000000 -77.626953 -3.906250 16.766912 -50.799183 -1.957576 -1.916209 -10.473034 45.254166 -1.864598 -2.000000 2.000000 0.000000 83.671875 -10.126952 9.121093 49.376415 1.611731 -2.024997 -8.900723 -62.583130 8.375338 3.299076 -0.507066 1.563282 5.991758 -6.325242 -0.912019 -6.852945 10.836949 1.398046 -14.069923 -11.693579 -26.516035 22.548883 5.009508 2.158834 5.941832 -6.422496 -8.005436 
3.241177 52.102329 1.807819 2.636719 -5.458984 58.437500 24.343414 -7.823433 -7.770943 -16.777344 12.656251 5.578311 51.553619 8.070152 2.616707 -64.443359 -8.095702 -3.037110 2.000000 -2.000000 0.000000 -78.925781 -3.388672 15.634191 -51.168465 -1.827827 -2.207689 -10.207174 43.697937 -2.006552 -2.000000 2.000000 0.000000 83.691406 -10.693360 10.105610 49.376415 1.611731 -2.024997 -8.559397 -62.882828 8.234972 4.328835 -0.379800 1.370437 6.547557 -6.295704 -0.991981 -8.486348 10.261231 2.091880 -15.272827 -9.481484 -27.142525 16.909456 5.398719 1.659659 6.111838 -4.696150 -9.015128 
4.379662 51.853722 2.704606 2.822266 -5.800781 59.111332 23.973724 -7.927940 -7.603083 -16.777344 12.832032 5.431857 51.553619 8.070152 2.616707 -64.111328 -8.300780 -3.408204 2.000000 -2.000000 0.000000 -79.902344 -2.607422 14.794921 -51.515064 -1.778034 -2.024801 -10.004615 42.455105 -2.424207 -2.000000 2.000000 0.000000 83.759766 -11.572265 11.191406 49.371655 1.611236 -1.848735 -7.862530 -63.042961 7.180530 5.681925 -0.272833 1.173198 6.722399 -6.314390 -0.823966 -9.869478 9.713565 2.212762 -16.187874 -7.495293 -27.596289 11.792774 5.566734 1.253260 6.102290 -4.306311 -8.759235 
5.405139 51.567459 3.748399 2.822266 -5.976562 59.628910 23.426664 -8.010802 -7.437546 -16.962891 12.832032 5.224609 51.553619 8.070152 2.616707 -63.984379 -8.847655 -3.320313 2.000000 -2.000000 0.000000 -81.474609 -1.533203 13.749741 -51.690861 -1.768285 -2.025369 -10.515494 41.494381 -2.962435 -2.000000 2.000000 0.000000 82.871094 -12.558594 13.093581 49.534206 1.789630 -1.720984 -8.063714 -62.536713 8.260427 7.229447 0.254300 1.017008 7.249568 -6.324505 -1.068396 -10.946334 9.159253 2.008808 -16.655182 -5.424563 -26.611345 7.206389 5.673380 0.323406 6.323968 -6.878691 -7.813020 
6.451259 51.303783 4.839420 2.460938 -5.986328 59.823204 23.037169 -7.938405 -7.213854 -16.933594 13.017578 5.087702 51.553619 8.070152 2.616707 -63.720707 -9.570312 -2.861328 2.000000 -2.000000 0.000000 -82.988281 -0.644531 13.154187 -50.983257 -1.758610 -1.859397 -11.090195 41.042629 -3.715365 -2.000000 2.000000 0.000000 81.494141 -13.769532 15.691034 49.722954 1.610667 -1.838990 -7.784681 -61.889820 8.290690 8.921171 0.986190 0.874529 7.780982 -6.299116 -1.125990 -11.964160 8.879165 1.786762 -16.900995 -3.278884 -25.625914 2.624771 5.727695 -0.184583 6.152126 -11.244564 -6.396906 
7.513394 51.025055 5.968315 1.933594 -5.996094 60.048832 22.677931 -7.786517 -7.145196 -16.933594 13.017578 5.087702 51.553619 8.070152 2.616707 -63.271484 -10.312499 -2.460938 2.000000 -2.000000 0.000000 -84.492188 1.025391 13.174003 -49.920597 -1.928898 -1.927665 -11.643280 41.147652 -3.729848 -2.000000 2.000000 0.000000 80.605469 -14.677733 17.783201 49.722954 1.610667 -1.838990 -7.350395 -61.642307 8.121021 10.813589 2.030929 0.613679 8.661712 -6.257102 -1.195620 -12.825855 8.493766 1.226962 -16.960058 -1.395232 -25.329849 -0.557455 5.546142 -0.187386 4.716588 -15.926751 -4.932769 
8.586883 50.738781 7.125707 1.406250 -5.996094 60.282185 22.141354 -7.705023 -6.916713 -17.128906 13.017579 4.875247 51.553619 8.070152 2.616707 -62.734379 -10.380858 -2.207031 2.000000 -2.000000 0.000000 -85.771484 3.066406 13.652342 -48.866211 -1.909969 -1.938550 -12.151608 42.277950 -3.872166 -2.000000 2.000000 0.000000 80.253906 -15.039063 18.437498 49.722954 1.610667 -1.838990 -7.648626 -62.298962 7.581341 12.614068 2.880351 0.554579 9.548267 -6.260580 -1.307574 -12.766993 7.767101 0.640359 -16.607580 -0.027447 -24.965124 -2.136805 5.561794 -0.196908 1.418917 -19.798246 -4.502106 
